<svg width="34" height="32" viewBox="0 0 34 32" fill="none" xmlns="http://www.w3.org/2000/svg">
<path fill-rule="evenodd" clip-rule="evenodd" d="M8 31C9.10457 31 10 30.1046 10 29C10 27.8954 9.10457 27 8 27C6.89543 27 6 27.8954 6 29C6 30.1046 6.89543 31 8 31Z" stroke="black" stroke-width="2" stroke-linecap="round" stroke-linejoin="round"/>
<path fill-rule="evenodd" clip-rule="evenodd" d="M20 31C21.1046 31 22 30.1046 22 29C22 27.8954 21.1046 27 20 27C18.8954 27 18 27.8954 18 29C18 30.1046 18.8954 31 20 31Z" stroke="black" stroke-width="2" stroke-linecap="round" stroke-linejoin="round"/>
<path d="M5.67 14H23L21.32 22.39C21.1313 23.3402 20.2886 24.0186 19.32 24H8.75C7.73948 24.0086 6.88134 23.262 6.75 22.26L5.23 10.74C5.09962 9.7456 4.25291 9.00152 3.25 9H1" stroke="black" stroke-width="2" stroke-linecap="round" stroke-linejoin="round"/>
<circle cx="24" cy="10" r="10" fill="#F72464"/>
<path d="M27.1348 7.34961C27.1348 7.88477 26.9727 8.33984 26.6484 8.71484C26.3242 9.08984 25.8691 9.34766 25.2832 9.48828V9.52344C25.9746 9.60938 26.498 9.82031 26.8535 10.1562C27.209 10.4883 27.3867 10.9375 27.3867 11.5039C27.3867 12.3281 27.0879 12.9707 26.4902 13.4316C25.8926 13.8887 25.0391 14.1172 23.9297 14.1172C23 14.1172 22.1758 13.9629 21.457 13.6543V12.1133C21.7891 12.2812 22.1543 12.418 22.5527 12.5234C22.9512 12.6289 23.3457 12.6816 23.7363 12.6816C24.334 12.6816 24.7754 12.5801 25.0605 12.377C25.3457 12.1738 25.4883 11.8477 25.4883 11.3984C25.4883 10.9961 25.3242 10.7109 24.9961 10.543C24.668 10.375 24.1445 10.291 23.4258 10.291H22.7754V8.90234H23.4375C24.1016 8.90234 24.5859 8.81641 24.8906 8.64453C25.1992 8.46875 25.3535 8.16992 25.3535 7.74805C25.3535 7.09961 24.9473 6.77539 24.1348 6.77539C23.8535 6.77539 23.5664 6.82227 23.2734 6.91602C22.9844 7.00977 22.6621 7.17188 22.3066 7.40234L21.4688 6.1543C22.25 5.5918 23.1816 5.31055 24.2637 5.31055C25.1504 5.31055 25.8496 5.49023 26.3613 5.84961C26.877 6.20898 27.1348 6.70898 27.1348 7.34961Z" fill="white"/>
</svg>
